<?xml version="1.0" encoding="UTF-8" standalone="no"?>
<!-- Created with Inkscape (http://www.inkscape.org/) -->

<svg
   xmlns:dc="http://purl.org/dc/elements/1.1/"
   xmlns:cc="http://creativecommons.org/ns#"
   xmlns:rdf="http://www.w3.org/1999/02/22-rdf-syntax-ns#"
   xmlns:svg="http://www.w3.org/2000/svg"
   xmlns="http://www.w3.org/2000/svg"
   xmlns:sodipodi="http://sodipodi.sourceforge.net/DTD/sodipodi-0.dtd"
   xmlns:inkscape="http://www.inkscape.org/namespaces/inkscape"
   width="297mm"
   height="210mm"
   viewBox="0 0 297 210"
   version="1.1"
   id="svg193"
   inkscape:version="0.92.1 r15371"
   sodipodi:docname="bruteforce.svg">
  <defs
     id="defs187" />
  <sodipodi:namedview
     id="base"
     pagecolor="#ffffff"
     bordercolor="#666666"
     borderopacity="1.0"
     inkscape:pageopacity="0.0"
     inkscape:pageshadow="2"
     inkscape:zoom="0.35"
     inkscape:cx="400"
     inkscape:cy="560"
     inkscape:document-units="mm"
     inkscape:current-layer="layer1"
     showgrid="false"
     inkscape:window-width="1366"
     inkscape:window-height="705"
     inkscape:window-x="-4"
     inkscape:window-y="-4"
     inkscape:window-maximized="1" />
  <metadata
     id="metadata190">
    <rdf:RDF>
      <cc:Work
         rdf:about="">
        <dc:format>image/svg+xml</dc:format>
        <dc:type
           rdf:resource="http://purl.org/dc/dcmitype/StillImage" />
        <dc:title></dc:title>
      </cc:Work>
    </rdf:RDF>
  </metadata>
  <g
     inkscape:label="Camada 1"
     inkscape:groupmode="layer"
     id="layer1"
     transform="translate(0,-87)">
    <path
       inkscape:connector-curvature="0"
       id="path10"
       style="fill:#000000;fill-rule:evenodd;stroke-width:0.58075565"
       d="m 219.7483,227.13013 c 6.50656,-0.89913 8.02551,1.94274 11.70606,0.73855 1.76428,-0.57722 0.49005,-0.0694 1.41065,-0.93805 l 0.86017,-1.01325 c 0.0479,-0.21072 0.18855,-0.2486 0.29961,-0.35728 0.26946,3.14451 -0.85622,4.3818 -1.95081,6.38611 -5.77649,-1.96098 -9.08209,-2.39956 -16.01869,-2.90377 -0.22128,-2.64157 -0.24185,-6.36764 1.03699,-8.33641 2.14698,1.66916 2.00181,2.93608 2.65602,6.4241 z m -29.89945,-5.02052 c 12.15614,-0.42523 15.77391,-3.96826 21.14542,-2.52728 9.05509,2.42937 -2.14472,8.59402 3.50482,17.38143 1.74301,2.7112 5.07666,5.70094 5.26583,9.9688 -5.4767,-3.3893 -12.13867,-6.16566 -17.71353,-9.69519 -5.35683,-3.39156 -10.7726,-7.01409 -12.20254,-15.12776 z m 46.3177,-10.82367 c 2.36252,3.69995 0.56955,7.16078 -3.09624,7.99526 l -0.26342,-7.03156 z m -8.03992,3.06762 c -3.15502,-1.68542 -4.45487,-1.89304 -8.7114,-1.50782 -0.95778,-1.30955 -1.52373,-1.29526 -1.89629,-3.59435 4.21474,0.21884 10.15616,-0.33917 13.41402,1.9055 -0.65434,1.76411 -1.76033,2.26027 -2.80633,3.19667 z m -12.90811,2.48843 c -2.86428,-1.78189 -2.87056,-4.77029 -3.20571,-9.027 1.6238,-0.27457 4.06122,-0.70375 4.18469,1.38499 z m 28.15951,-26.46541 c 8.43861,0.0373 8.41143,-3.24734 14.64806,-4.83647 -1.08241,8.30575 -10.86826,11.98987 -14.64806,4.83647 z m 2.49521,-7.57925 c 1.03382,-1.45793 1.49645,-2.3933 4.24051,-2.32993 0.99106,3.33348 -1.03577,5.08457 -3.53853,6.17174 -3.6838,1.59981 -5.76104,0.54196 -6.62841,-2.77788 1.80592,-2.34521 3.41689,-2.45961 5.92643,-1.06393 z m -14.82912,15.23675 -0.10163,-5.4051 -2.7864,-0.0437 0.16748,2.10187 0.92933,3.69319 c -1.41756,0.90295 -10.15666,3.40394 -11.71152,3.43912 -1.35154,-2.39259 -0.058,-1.94815 -2.19147,-3.02492 -1.56538,1.14973 -1.33414,2.9963 -1.99393,4.58593 -1.72292,-0.3222 -3.08142,-1.01922 -4.47611,-1.52709 0.49521,2.54016 0.74342,1.1262 1.16621,3.4347 -1.53905,0.58018 -3.73842,1.41961 -5.12045,1.99397 0.86346,-4.14573 4.56038,-3.27702 -5.20457,-4.88805 l -11.83661,-1.82664 c 5.2505,-2.18818 10.19545,-0.38325 16.00423,-0.32495 l 1.45463,-3.02363 c -2.73328,-2.10275 -8.14134,-2.75104 -12.10302,-2.50212 1.95408,-0.86099 0.8162,0.24891 1.71358,-1.62043 l -2.24218,-2.06866 c 5.77781,-0.15036 7.02518,2.84913 12.63162,3.1491 l -8.53148,-6.25487 c -0.68716,-0.37696 -0.92171,-0.43823 -1.59459,-0.80749 l -1.70659,-1.06364 c 9.29509,1.47077 8.52269,8.29475 19.9881,0.60138 6.11197,-4.10126 10.0578,-8.92309 19.13548,-4.51021 -0.68117,2.06638 -0.3276,1.0719 -2.09415,2.12139 5.17099,1.82565 3.11286,2.13613 4.55545,4.34387 5.49384,0.87288 7.92366,3.21646 8.57311,8.63438 6.98058,0.39986 13.93571,1.30252 20.17233,4.34573 l 3.59029,2.29534 c 0.7943,0.79546 0.23886,0.16331 0.91695,1.16933 -9.58241,-0.77228 -13.57719,-5.57582 -25.11762,-4.79564 1.56292,2.40068 11.03622,5.20573 14.08321,6.71533 -0.51677,0.27854 -0.23886,0.26715 -1.24502,0.39062 -3.82109,0.46937 -13.42098,-4.74377 -15.47906,-5.22994 5.77283,9.17171 8.49737,4.41806 11.03732,13.43957 -1.54022,-0.33417 -7.84022,-6.81029 -9.70518,-8.3428 -5.50175,-4.5209 -7.49699,-3.12173 -14.19258,-1.97037 1.27058,-1.96662 3.08208,-4.27332 3.31473,-7.2245 z M 219.83965,180.2794 c -4.9733,2.15378 -9.40806,-1.98387 -8.11926,-7.69036 3.42663,0.0371 5.12871,1.43945 3.44081,3.91126 3.10384,2.05547 4.28678,0.31002 4.67845,3.7791 z m 23.23481,-3.29195 c 0.80192,-4.61528 3.33908,-6.04882 8.27333,-6.66249 -1.27417,3.7213 -3.88676,5.58401 -8.27333,6.66249 z M 210.30893,93.844253 h -4.94055 c -0.97967,0.464261 -7.08655,2.216822 -8.65703,2.77224 l 0.011,4.647507 -5.14822,-0.66537 c -1.10037,3.17405 -0.1295,4.44976 -2.27431,7.84513 -1.44607,2.28941 -2.88947,3.32391 -5.73909,4.70064 -6.86614,3.31734 -17.20452,4.31038 -17.14341,13.79742 0.0237,3.68361 1.58563,5.23323 2.19873,8.42693 1.79517,9.35306 -6.92707,7.52084 -8.96461,11.29483 -0.41024,3.61513 1.2383,5.82091 0.38818,10.34958 -0.54905,2.92433 -2.19362,5.1509 -3.68309,7.33477 -2.68617,3.93864 -6.72294,9.44315 -5.02139,16.43737 0.86267,1.22923 2.94397,-0.88734 4.9927,-0.0294 0.42326,1.44719 -2.67217,6.17949 -3.21854,11.16493 -2.23349,20.38091 1.27236,11.99022 16.32752,19.27365 4.88522,2.36332 10.4133,5.7554 12.71013,9.31573 -3.04903,2.03275 -9.17169,2.0331 -12.20278,4.01993 6.13835,1.85445 13.5782,2.26243 20.38999,2.94442 0.46257,5.45993 -2.8162,6.99259 2.2667,9.90804 3.60374,2.06703 8.2524,2.38645 9.41809,5.70669 2.31578,6.59552 -9.65662,11.72203 -13.79032,14.32642 -10.93035,-18.84436 -25.55667,-14.37921 -36.74632,-21.20932 5.92957,-1.80805 10.29837,-2.12103 16.706,-2.6221 -2.08578,-1.20849 -1.8879,-1.82798 -3.94516,-2.8528 -5.35306,-0.0588 -6.28896,5.99661 -12.3988,-0.20172 -2.47135,-2.50706 -5.59442,-7.54141 -10.05126,-6.94602 6.06438,10.18828 11.17496,22.79891 17.48661,33.18572 3.54373,5.83143 4.42526,7.65089 9.57602,8.00973 6.71831,0.46804 12.14378,-2.85785 13.6876,-2.70626 4.13916,0.40629 10.17953,3.45765 11.00399,6.27216 3.10002,10.5819 -3.44261,12.07124 12.54066,13.44269 4.64023,0.39806 3.40147,0.65092 5.19638,3.66371 3.15105,0.1407 3.04141,-0.8353 5.81086,-1.21308 5.59181,-0.76271 14.38073,1.05423 18.00917,-2.18934 1.70074,-1.52014 5.08011,-6.12598 2.77788,-9.80123 -2.00496,-3.2009 -6.47254,-1.51915 -7.51,-7.28704 2.65657,0.24793 18.53366,4.73721 15.08234,-1.94572 -0.48841,-0.94575 -1.71472,-2.03292 -2.25124,-2.49288 -7.58948,-6.50657 -6.5968,-7.59409 -0.48481,-16.76642 4.04101,-6.06425 11.81142,-14.80956 12.20174,-24.89968 9.92268,-2.48463 14.31817,-8.14044 18.17133,-16.73974 1.25048,-2.79101 6.80425,-16.04374 7.20804,-18.98555 0.33783,-2.46031 -1.45741,-4.54888 -2.02386,-7.4749 9.42187,-1.00124 15.46459,-5.65645 13.62934,-15.69388 -7.94208,0.63477 -9.14895,2.52186 -14.6314,-6.07448 -3.41414,-5.35306 -4.57094,-9.80119 -10.81762,-11.60726 -0.095,0.16857 0.11458,0.84087 -1.16156,2.88565 -6.00218,-0.9413 -11.42969,-4.45505 -18.35751,-2.90379 -0.12226,2.60911 0.47756,2.55463 2.34619,3.61104 l 1.21117,0.74737 c 0.0959,0.0623 0.27538,0.17691 0.39457,0.28758 -6.87302,0.86509 -10.50332,2.42972 -17.22703,0.54232 0.23016,-2.59913 2.38917,-3.33302 0.88155,-4.81825 -3.29243,-3.24357 -9.16458,3.88281 -16.23793,3.53431 -0.0154,5.19752 -1.97254,5.56973 -2.50887,10.60326 l 6.84124,-0.75051 c 0.39051,4.55562 -4.0017,4.47658 -7.55575,3.90635 -1.01522,2.99617 -3.51618,2.57633 -3.06942,5.75377 0.32517,2.31309 2.74362,3.74321 3.03551,5.69135 -1.31152,-1.25362 -3.08702,-2.66243 -6.08697,-2.82771 -2.28939,2.9046 -0.80732,10.7891 -4.64599,12.37818 -3.34021,-2.35293 -0.7016,-7.52475 1.1196,-10.41736 -0.11063,-0.0876 -0.30554,-0.33399 -0.36038,-0.22244 l -1.10115,-0.59278 c -0.71348,-0.33254 -0.81406,-0.26028 -1.48425,-0.59609 0.25833,-3.04211 2.13881,-7.43263 2.91794,-10.84246 0.83414,-3.6507 1.45938,-7.46731 2.28516,-11.06254 1.98736,-8.65315 9.82605,-5.2441 13.70573,-12.92675 -3.46777,-0.41275 -8.37322,5.67161 -7.24063,0.80893 0.61088,-2.62245 2.7234,-4.60533 1.19236,-7.5213 -1.82202,2.63791 -1.70581,5.65384 -4.27495,7.89619 -2.57368,2.2463 -4.92012,2.27657 -8.23889,3.45823 0.46918,-6.15295 1.93216,-10.79156 -4.00352,-13.31197 -1.14046,5.30323 0.11305,13.16067 -4.49189,14.7455 -0.95842,-6.07789 2.06962,-19.16051 1.26808,-20.92084 -6.74182,10.19284 -5.68184,14.91258 -7.77878,28.27809 -6.49852,-13.20069 -3.0587,-35.59311 13.68104,-39.24613 2.80185,-0.61141 4.28942,-0.24559 6.88476,-0.50509 5.15744,-0.5154 6.74801,-5.87032 18.01969,-1.34398 3.07927,1.2365 7.02697,4.28041 8.07064,7.07919 1.40966,3.77991 -3.94502,2.47361 -2.85012,11.09625 l 16.80103,5.20555 c -2.97626,0.41472 -6.7794,-0.56084 -9.13562,0.94924 3.94534,1.40949 10.64338,4.88287 14.90234,4.62015 1.39423,-0.0858 1.56294,-0.24397 2.52764,-0.86197 l 2.36546,-1.55073 c 1.21332,2.17661 2.83798,5.91675 5.42914,6.47908 -9.26781,-21.27462 -24.88647,-24.61189 -30.81606,-31.02447 -4.29782,-4.64785 -7.64646,-8.931664 -13.75497,-11.786085 -3.38077,-1.579684 -7.12432,-1.87221 -9.6462,-2.960372 z" />
    <path
       inkscape:connector-curvature="0"
       id="path12"
       style="fill:#000000;fill-rule:evenodd;stroke-width:0.58075565"
       d="m 91.889194,188.89317 c -3.281739,-13.53336 5.958565,-30.51581 8.466616,-42.34301 -6.737057,5.81023 -12.447347,25.37479 -13.466061,37.48121 -0.396062,-0.38017 -1.10412,-1.49336 -1.845409,-1.3315 l -1.556067,13.08135 c -5.991423,2.19323 -3.318615,-3.82689 -7.827657,11.59903 -3.147759,10.76865 -10.584161,37.24874 -11.057772,46.48955 8.701524,2.73572 18.161919,2.37616 26.901131,0.0702 -2.10501,-3.72508 -9.583051,-9.73299 -7.701753,-16.93216 2.186377,-8.36718 10.211145,-1.9266 15.981994,-10.1566 3.245744,-4.62891 3.971904,-12.52905 7.800194,-17.75765 2.67415,-3.65267 10.53399,-9.91594 11.14028,-14.5952 -5.66125,-5.33117 -7.83937,0.96092 -13.65489,1.76266 2.9364,-6.98202 3.4772,-12.51524 8.64803,-13.95504 2.30159,2.63661 4.03589,5.1129 6.21105,8.13684 4.76193,6.61987 14.95922,19.14461 24.01763,20.24876 3.83553,-8.51454 4.05205,-11.36911 3.10461,-22.29848 -1.59633,-18.4171 0.34623,-17.6279 0.1306,-24.01018 -7.28489,-1.24833 -7.19568,-1.80081 -14.28306,-0.14729 -0.66148,-3.45957 -0.6279,-5.20805 -0.49817,-8.83127 0.12204,-3.40591 0.62344,-6.53966 -1.48666,-8.3278 -1.94212,5.95808 1.18346,14.28472 -3.83874,16.44364 -3.21523,-3.58107 -0.25135,-11.71583 -0.061,-16.37797 -0.82839,1.43442 -0.48303,1.59488 -1.52938,2.93096 l -2.47348,0.0861 -1.53675,-3.88578 c -3.3218,3.56968 -3.42896,14.13182 -7.42519,19.3329 -3.01017,-9.36149 1.32441,-17.62758 5.40016,-23.6327 1.89234,-2.78819 4.89409,-5.65464 7.62862,-8.05257 1.97632,-1.73281 7.56957,-5.25876 8.79457,-6.83783 -12.02925,0.2761 -26.13203,13.62493 -31.66652,22.31015 -3.56973,5.60214 -5.948209,12.21722 -7.667187,19.63435 -3.139856,13.54805 5.386617,5.42367 -4.649653,19.86545 z" />
    <path
       inkscape:connector-curvature="0"
       id="path14"
       style="fill:#000000;fill-rule:evenodd;stroke-width:0.58075565"
       d="m 87.418367,165.64714 c 0.361338,-2.43098 0.43724,-4.11622 1.346775,-6.15776 1.145122,-2.57023 1.946686,-2.6878 2.303107,-6.02452 -2.808194,1.544 -11.497163,9.89011 -15.187521,12.88575 -3.028592,2.45827 -13.162013,10.99667 -15.926198,12.18872 0.757774,-1.30448 0.711504,-1.50038 1.905991,-2.82677 -0.402165,-0.94906 -1.104603,0.58808 -4.21948,3.17726 -8.263274,6.86907 -31.874258,19.94826 -39.233945,7.36463 -6.076896,-10.39026 2.456887,-18.31193 6.229886,-22.91994 1.20026,-1.46576 2.285635,-3.23729 3.429769,-4.70951 2.686636,-3.45729 11.932275,-3.78869 11.151102,-13.12068 -23.515788,-12.59733 -48.3047092,43.62806 -18.219252,53.83589 14.758226,5.00715 31.098947,-1.75476 38.762946,-9.62673 6.190399,-6.35823 20.706914,-20.53924 27.65682,-24.06634 z" />
  </g>
</svg>
